<svg opacity="0.03" xmlns="http://www.w3.org/2000/svg" viewBox="0 0 24 24" xml:space="preserve"><g/><path d="m1.726 15.901.314.81a10.93 10.93 0 0 0 3.635 4.795 2.35 2.35 0 0 0 2.258.317 2.35 2.35 0 0 0 1.472-1.74l.224-1.115c2.685.121 5.398-.11 7.967-.672A3.64 3.64 0 0 0 20.31 15.8c.249-.86.434-1.742.548-2.62a1 1 0 0 0-1.984-.258 15.4 15.4 0 0 1-.483 2.311c-.166.555-.637.98-1.226 1.11-2.563.563-5.27.764-7.974.6a1.36 1.36 0 0 0-1.414 1.087l-.334 1.66a.35.35 0 0 1-.224.265.35.35 0 0 1-.345-.048 8.94 8.94 0 0 1-2.971-3.919l-.3-.769a14.95 14.95 0 0 1 .004-8.45c.166-.555.637-.98 1.224-1.11a29 29 0 0 1 4.211-.595c.551-.037.968-.514.93-1.064s-.517-.976-1.064-.931c-1.51.101-3.023.315-4.505.636A3.64 3.64 0 0 0 1.69 6.198a16.95 16.95 0 0 0-.006 9.587c.008.026.03.091.04.117"/><path d="m19.274 1.06-.714.169a5 5 0 0 0-.417.102 24.6 24.6 0 0 0-5.94 2.283 2.25 2.25 0 0 0-1.182 2.295c.123.95.806 1.704 1.745 1.925l1.728.395.232.08.438 1.923A2.27 2.27 0 0 0 17.388 12c.846 0 1.591-.45 1.994-1.2a25 25 0 0 0 2.378-6.31l.18-.766V3.72c.174-.75-.048-1.524-.593-2.069S20.03.883 19.274 1.06m.718 2.208-.18.77a23 23 0 0 1-2.19 5.814c-.057.104-.126.148-.234.148-.053 0-.229-.015-.274-.212l-.439-1.926c-.007-.032-.025-.059-.034-.09l1.128-1.128a1 1 0 1 0-1.414-1.415l-1.129 1.13c-.034-.01-.062-.03-.097-.037l-1.911-.436a.26.26 0 0 1-.214-.235q-.025-.184.147-.276a22.6 22.6 0 0 1 5.463-2.101l.098-.026c.07-.02.135-.039.255-.062l.762-.18a.21.21 0 0 1 .205.059.21.21 0 0 1 .058.203"/></svg>
